<svg fill="none" xmlns="http://www.w3.org/2000/svg" viewBox="0 0 49 48" class="design-iconfont">
  <rect x=".333008" width="48" height="48" rx="12" fill="#07C160"/>
  <mask id="9wpjcho6l__mwow5bhcua" style="mask-type:alpha" maskUnits="userSpaceOnUse" x="7" y="7" width="35" height="34">
    <path fill="#fff" d="M7.5332 7.19995H41.1332V40.79995H7.5332z"/>
  </mask>
  <g mask="url(#9wpjcho6l__mwow5bhcua)">
    <path fill-rule="evenodd" clip-rule="evenodd" d="M34.8311 11.3617C37.0583 12.4526 38.4413 14.6044 38.9307 17.4425C39.4058 20.1974 38.1751 22.3954 36.7786 23.8464C35.4136 25.2647 33.6911 26.1998 32.4848 26.5626C31.3741 26.8966 30.203 26.2669 29.869 25.1563C29.5351 24.0456 30.1647 22.8745 31.2754 22.5405C31.8066 22.3807 32.899 21.8207 33.7524 20.934C34.5743 20.08 34.9655 19.1632 34.7918 18.1562C34.4703 16.2918 33.7103 15.4895 32.9836 15.1335C32.1705 14.7352 30.8981 14.6493 29.1737 15.2134C27.0239 15.9167 26.6234 17.3702 26.5666 17.8901V30.9949L26.5381 31.1659C26.2735 32.7576 25.1787 34.7441 23.4216 36.1257C21.5516 37.596 18.8977 38.4028 15.728 37.4067C12.5432 36.406 10.8767 34.22 10.2507 31.9303C9.66462 29.7869 9.99092 27.5861 10.6281 26.2043C11.0141 25.3671 11.8486 24.2807 12.9082 23.3884C13.9804 22.4854 15.5442 21.5614 17.435 21.4885C18.594 21.4438 19.5697 22.3471 19.6144 23.506C19.659 24.665 18.7558 25.6407 17.5968 25.6854C16.9854 25.7089 16.2905 26.0309 15.6137 26.6009C14.9242 27.1816 14.5194 27.7953 14.4421 27.9629C14.2041 28.4792 13.9858 29.6665 14.302 30.8226C14.578 31.8324 15.2604 32.8573 16.9871 33.3999C18.7289 33.9472 19.9558 33.508 20.8255 32.8241C21.7287 32.114 22.2274 31.1476 22.3666 30.609V17.7247L22.3719 17.6503C22.4936 15.9396 23.6174 12.612 27.8678 11.2215C30.1978 10.4593 32.6902 10.3131 34.8311 11.3617Z" fill="#fff"/>
  </g>
</svg>
