<svg fill="none" xmlns="http://www.w3.org/2000/svg" viewBox="0 0 48 48" class="design-iconfont">
  <rect width="48" height="48" rx="12" fill="#61DAFB"/>
  <path fill-rule="evenodd" clip-rule="evenodd" d="M31.5504 10.9047C31.9256 11.1213 32.2798 11.5866 32.4726 12.4881C32.6654 13.3896 32.665 14.6043 32.4288 16.0781C32.3554 16.5368 32.26 17.0147 32.1431 17.5091C30.8785 17.2385 29.5197 17.0299 28.0935 16.892C27.261 15.7258 26.401 14.6534 25.5344 13.6936C25.9041 13.3451 26.2703 13.0236 26.6308 12.7306C27.7891 11.7892 28.8409 11.1814 29.7179 10.8977C30.5951 10.6139 31.1751 10.688 31.5504 10.9047ZM22.4454 13.6936C22.0757 13.3451 21.7095 13.0236 21.3491 12.7306C20.1908 11.7892 19.139 11.1815 18.2619 10.8977C17.3847 10.6139 16.8048 10.688 16.4295 10.9047C16.0542 11.1214 15.7001 11.5866 15.5072 12.4882C15.3144 13.3896 15.3149 14.6043 15.551 16.0782C15.6245 16.5368 15.7198 17.0147 15.8367 17.5091C17.1013 17.2385 18.4601 17.0299 19.8863 16.892C20.7188 15.7258 21.5788 14.6534 22.4454 13.6936ZM23.9899 12.1086C23.5727 11.7142 23.1569 11.3484 22.7447 11.0135C21.4637 9.97233 20.171 9.18961 18.943 8.79234C17.7152 8.39513 16.4295 8.34954 15.3231 8.98834C14.2166 9.62715 13.6133 10.7634 13.3433 12.0253C13.0734 13.2874 13.1049 14.7983 13.366 16.4282C13.4501 16.9527 13.5589 17.4957 13.6918 18.0541C13.1417 18.2182 12.6171 18.3955 12.1209 18.5849C10.5787 19.1738 9.25454 19.9019 8.2965 20.7667C7.33857 21.6315 6.65625 22.7221 6.65625 23.9997C6.65625 25.2773 7.33857 26.368 8.2965 27.2327C9.25454 28.0975 10.5787 28.8257 12.1209 29.4145C12.6171 29.6039 13.1417 29.7812 13.6919 29.9453C13.5589 30.5038 13.4501 31.0468 13.3661 31.5713C13.1049 33.2012 13.0734 34.7121 13.3434 35.9742C13.6133 37.2361 14.2166 38.3724 15.3231 39.0112C16.4295 39.65 17.7152 39.6044 18.943 39.2072C20.171 38.8099 21.4637 38.0272 22.7447 36.9861C23.1569 36.6511 23.5727 36.2853 23.9899 35.8909C24.4071 36.2853 24.8229 36.6511 25.2351 36.9861C26.5161 38.0272 27.8088 38.8099 29.0368 39.2072C30.2646 39.6044 31.5503 39.65 32.6568 39.0112C33.7632 38.3724 34.3666 37.2361 34.6365 35.9742C34.9064 34.7121 34.8749 33.2012 34.6138 31.5713C34.5298 31.0468 34.4209 30.5038 34.288 29.9453C34.8381 29.7812 35.3628 29.6039 35.859 29.4145C37.4012 28.8257 38.7254 28.0975 39.6834 27.2327C40.6413 26.368 41.3236 25.2773 41.3236 23.9997C41.3236 22.7221 40.6413 21.6315 39.6834 20.7667C38.7254 19.9019 37.4012 19.1738 35.859 18.5849C35.3628 18.3955 34.8381 18.2182 34.288 18.0541C34.421 17.4956 34.5298 16.9527 34.6138 16.4282C34.8749 14.7983 34.9065 13.2874 34.6365 12.0253C34.3666 10.7634 33.7632 9.62713 32.6568 8.98833C31.5503 8.34952 30.2646 8.39511 29.0368 8.79233C27.8088 9.1896 26.5161 9.97231 25.2351 11.0134C24.823 11.3484 24.4071 11.7142 23.9899 12.1086ZM31.5367 19.6426C30.9477 19.5197 30.3341 19.4104 29.699 19.3163C29.907 19.6548 30.1121 19.9991 30.3139 20.3486C30.5157 20.6982 30.7112 21.0479 30.9005 21.3972C31.1365 20.8001 31.3487 20.2141 31.5367 19.6426ZM32.1972 23.9998C32.7909 22.6957 33.2896 21.4146 33.6876 20.1842C34.1742 20.3301 34.6358 20.4865 35.0697 20.6522C36.4641 21.1846 37.5164 21.7916 38.2006 22.4093C38.885 23.0271 39.1108 23.5664 39.1108 23.9997C39.1108 24.433 38.885 24.9724 38.2006 25.5902C37.5164 26.2078 36.4641 26.8148 35.0697 27.3472C34.6358 27.5129 34.1742 27.6693 33.6875 27.8153C33.2896 26.5848 32.7909 25.3038 32.1972 23.9998ZM29.7513 23.9998C29.3422 23.1602 28.8907 22.3092 28.3975 21.455C27.9044 20.6008 27.3931 19.7843 26.8706 19.0102C25.939 18.9447 24.9762 18.9102 23.9899 18.9102C23.0036 18.9102 22.0408 18.9447 21.1093 19.0102C20.5867 19.7842 20.0755 20.6008 19.5823 21.455C19.0892 22.3092 18.6376 23.1602 18.2285 23.9998C18.6376 24.8393 19.0891 25.6903 19.5823 26.5445C20.0755 27.3987 20.5867 28.2152 21.1092 28.9892C22.0408 29.0547 23.0036 29.0892 23.9899 29.0892C24.9763 29.0892 25.939 29.0547 26.8706 28.9892C27.3932 28.2152 27.9044 27.3986 28.3975 26.5445C28.8907 25.6903 29.3422 24.8393 29.7513 23.9998ZM29.6991 28.6831C29.907 28.3446 30.1121 28.0004 30.3139 27.6509C30.5157 27.3014 30.7112 26.9517 30.9005 26.6023C31.1365 27.1994 31.3486 27.7854 31.5366 28.3568C30.9477 28.4798 30.3342 28.589 29.6991 28.6831ZM25.1914 31.2857C24.7942 31.2965 24.3936 31.302 23.9899 31.302C23.5863 31.302 23.1857 31.2965 22.7885 31.2857C23.1876 31.7886 23.589 32.2654 23.9899 32.714C24.3908 32.2654 24.7922 31.7886 25.1914 31.2857ZM25.5344 34.3059C26.401 33.3461 27.2611 32.2736 28.0936 31.1075C29.5198 30.9695 30.8785 30.7609 32.1431 30.4903C32.26 30.9848 32.3554 31.4627 32.4288 31.9214C32.665 33.3952 32.6654 34.6099 32.4726 35.5114C32.2798 36.4129 31.9256 36.8782 31.5504 37.0948C31.1751 37.3115 30.5951 37.3856 29.7179 37.1018C28.8408 36.8181 27.7891 36.2103 26.6308 35.2689C26.2703 34.9759 25.9041 34.6544 25.5344 34.3059ZM22.4454 34.3059C21.5788 33.3461 20.7188 32.2736 19.8862 31.1075C18.4601 30.9695 17.1013 30.7609 15.8368 30.4903C15.7198 30.9848 15.6245 31.4627 15.551 31.9213C15.3149 33.3952 15.3144 34.6099 15.5072 35.5113C15.7001 36.4129 16.0542 36.8781 16.4295 37.0948C16.8048 37.3115 17.3847 37.3856 18.2619 37.1018C19.139 36.818 20.1908 36.2103 21.3491 35.2689C21.7095 34.9759 22.0757 34.6544 22.4454 34.3059ZM16.4432 28.3568C17.0321 28.4797 17.6457 28.589 18.2807 28.6831C18.0728 28.3446 17.8678 28.0004 17.666 27.6509C17.4642 27.3014 17.2686 26.9517 17.0794 26.6023C16.8434 27.1994 16.6312 27.7853 16.4432 28.3568ZM17.0794 21.3972C17.2686 21.0479 17.4642 20.6981 17.666 20.3486C17.8678 19.9991 18.0729 19.6548 18.2808 19.3163C17.6457 19.4104 17.0321 19.5197 16.4432 19.6426C16.6312 20.2141 16.8434 20.8001 17.0794 21.3972ZM15.7826 23.9998C15.189 25.3038 14.6902 26.5848 14.2923 27.8152C13.8056 27.6693 13.3441 27.5129 12.9102 27.3472C11.5158 26.8148 10.4635 26.2078 9.77926 25.5902C9.09489 24.9724 8.86906 24.433 8.86906 23.9997C8.86906 23.5664 9.09489 23.0271 9.77926 22.4093C10.4635 21.7916 11.5158 21.1846 12.9102 20.6522C13.3441 20.4865 13.8056 20.3301 14.2923 20.1842C14.6902 21.4147 15.189 22.6957 15.7826 23.9998ZM22.7885 16.7137C23.1857 16.7029 23.5863 16.6974 23.9899 16.6974C24.3935 16.6974 24.7941 16.7029 25.1913 16.7137C24.7922 16.2108 24.3908 15.7341 23.9899 15.2855C23.589 15.7341 23.1876 16.2108 22.7885 16.7137ZM27.0137 23.9998C27.0137 25.67 25.6597 27.024 23.9895 27.024C22.3193 27.024 20.9653 25.67 20.9653 23.9998C20.9653 22.3296 22.3193 20.9756 23.9895 20.9756C25.6597 20.9756 27.0137 22.3296 27.0137 23.9998Z" fill="#fff"/>
</svg>
