<svg width="48" height="48" viewBox="0 0 48 48" fill="none" xmlns="http://www.w3.org/2000/svg">
<rect width="48" height="48" rx="12" fill="#61DAFB"/>
<path fill-rule="evenodd" clip-rule="evenodd" d="M31.5494 10.9049C31.9247 11.1216 32.2788 11.5868 32.4717 12.4884C32.6645 13.3898 32.664 14.6046 32.4279 16.0784C32.3544 16.537 32.259 17.0149 32.1421 17.5093C30.8775 17.2387 29.5188 17.0301 28.0926 16.8922C27.26 15.7261 26.4 14.6537 25.5334 13.6938C25.9031 13.3454 26.2694 13.0238 26.6298 12.7309C27.7881 11.7895 28.8399 11.1817 29.7169 10.898C30.5941 10.6142 31.1741 10.6883 31.5494 10.9049ZM22.4445 13.6938C22.0747 13.3454 21.7085 13.0238 21.3481 12.7309C20.1898 11.7895 19.138 11.1817 18.261 10.898C17.3838 10.6142 16.8038 10.6883 16.4285 10.9049C16.0532 11.1216 15.6991 11.5868 15.5062 12.4884C15.3134 13.3898 15.3139 14.6046 15.55 16.0784C15.6235 16.537 15.7188 17.0149 15.8358 17.5093C17.1003 17.2387 18.4591 17.0301 19.8853 16.8922C20.7178 15.7261 21.5779 14.6537 22.4445 13.6938ZM23.9889 12.1088C23.5718 11.7144 23.1559 11.3487 22.7437 11.0137C21.4627 9.97257 20.1701 9.18986 18.9421 8.79259C17.7142 8.39537 16.4285 8.34978 15.3221 8.98859C14.2157 9.62739 13.6123 10.7636 13.3424 12.0256C13.0724 13.2877 13.1039 14.7985 13.3651 16.4285C13.4491 16.9529 13.5579 17.4959 13.6909 18.0544C13.1407 18.2185 12.6161 18.3957 12.1199 18.5852C10.5777 19.174 9.25357 19.9021 8.29552 20.767C7.3376 21.6317 6.65527 22.7223 6.65527 24C6.65527 25.2776 7.3376 26.3682 8.29552 27.2329C9.25357 28.0978 10.5777 28.8259 12.1199 29.4147C12.6161 29.6042 13.1407 29.7814 13.6909 29.9455C13.5579 30.504 13.4491 31.0471 13.3651 31.5715C13.1039 33.2015 13.0724 34.7123 13.3424 35.9744C13.6123 37.2364 14.2157 38.3726 15.3221 39.0114C16.4285 39.6502 17.7142 39.6046 18.9421 39.2074C20.1701 38.8101 21.4627 38.0274 22.7437 36.9863C23.1559 36.6513 23.5718 36.2856 23.9889 35.8912C24.4061 36.2856 24.822 36.6513 25.2342 36.9863C26.5152 38.0274 27.8078 38.8102 29.0358 39.2074C30.2637 39.6046 31.5493 39.6502 32.6558 39.0114C33.7622 38.3726 34.3656 37.2364 34.6355 35.9744C34.9055 34.7123 34.8739 33.2015 34.6128 31.5715C34.5288 31.0471 34.42 30.5041 34.287 29.9456C34.8372 29.7815 35.3618 29.6042 35.8581 29.4147C37.4002 28.8259 38.7244 28.0978 39.6824 27.2329C40.6403 26.3682 41.3227 25.2776 41.3227 24C41.3227 22.7223 40.6403 21.6317 39.6824 20.767C38.7244 19.9021 37.4002 19.174 35.8581 18.5852C35.3618 18.3957 34.8372 18.2185 34.287 18.0544C34.42 17.4959 34.5288 16.9529 34.6128 16.4284C34.874 14.7985 34.9055 13.2877 34.6355 12.0256C34.3656 10.7636 33.7622 9.62738 32.6558 8.98857C31.5494 8.34977 30.2637 8.39535 29.0358 8.79257C27.8078 9.18984 26.5152 9.97256 25.2342 11.0137C24.822 11.3487 24.4061 11.7144 23.9889 12.1088ZM31.5357 19.6428C30.9468 19.5199 30.3332 19.4107 29.698 19.3165C29.906 19.6551 30.1111 19.9993 30.3129 20.3489C30.5147 20.6984 30.7103 21.0481 30.8995 21.3975C31.1355 20.8004 31.3477 20.2144 31.5357 19.6428ZM32.1963 24C32.7899 22.6959 33.2886 21.4149 33.6866 20.1844C34.1733 20.3304 34.6348 20.4868 35.0687 20.6524C36.4632 21.1849 37.5154 21.7918 38.1997 22.4095C38.884 23.0273 39.1099 23.5666 39.1099 24C39.1099 24.4333 38.884 24.9726 38.1997 25.5904C37.5154 26.2081 36.4632 26.8151 35.0687 27.3475C34.6348 27.5132 34.1732 27.6695 33.6866 27.8155C33.2886 26.5851 32.7899 25.3041 32.1963 24ZM29.7503 24C29.3413 23.1605 28.8897 22.3095 28.3965 21.4553C27.9034 20.6011 27.3921 19.7845 26.8696 19.0105C25.938 18.9449 24.9753 18.9105 23.989 18.9105C23.0026 18.9105 22.0399 18.945 21.1083 19.0105C20.5857 19.7845 20.0745 20.6011 19.5813 21.4553C19.0882 22.3094 18.6366 23.1605 18.2276 24C18.6366 24.8395 19.0882 25.6906 19.5813 26.5447C20.0745 27.3989 20.5857 28.2154 21.1082 28.9894C22.0398 29.055 23.0026 29.0894 23.989 29.0894C24.9753 29.0894 25.9381 29.055 26.8697 28.9894C27.3922 28.2154 27.9034 27.3989 28.3966 26.5447C28.8897 25.6905 29.3413 24.8395 29.7503 24ZM29.6981 28.6834C29.906 28.3449 30.1111 28.0007 30.3129 27.6511C30.5147 27.3016 30.7103 26.9519 30.8995 26.6025C31.1355 27.1996 31.3477 27.7856 31.5357 28.3571C30.9468 28.48 30.3332 28.5892 29.6981 28.6834ZM25.1904 31.2859C24.7932 31.2967 24.3926 31.3022 23.989 31.3022C23.5853 31.3022 23.1847 31.2967 22.7875 31.2859C23.1866 31.7889 23.588 32.2656 23.9889 32.7142C24.3899 32.2656 24.7913 31.7889 25.1904 31.2859ZM25.5334 34.3062C26.4 33.3463 27.2601 32.2739 28.0926 31.1077C29.5188 30.9698 30.8775 30.7612 32.1421 30.4906C32.259 30.985 32.3544 31.463 32.4279 31.9216C32.664 33.3954 32.6645 34.6102 32.4716 35.5116C32.2788 36.4132 31.9247 36.8784 31.5494 37.0951C31.1741 37.3117 30.5941 37.3858 29.7169 37.102C28.8399 36.8183 27.7881 36.2105 26.6298 35.2691C26.2693 34.9762 25.9031 34.6546 25.5334 34.3062ZM22.4445 34.3062C21.5778 33.3463 20.7178 32.2739 19.8852 31.1077C18.4591 30.9698 17.1003 30.7612 15.8358 30.4906C15.7189 30.985 15.6235 31.463 15.55 31.9216C15.3139 33.3954 15.3134 34.6102 15.5062 35.5116C15.6991 36.4132 16.0532 36.8784 16.4285 37.0951C16.8038 37.3117 17.3838 37.3858 18.261 37.102C19.138 36.8183 20.1898 36.2105 21.3481 35.2691C21.7085 34.9762 22.0747 34.6546 22.4445 34.3062ZM16.4422 28.3571C17.0311 28.48 17.6447 28.5892 18.2798 28.6834C18.0718 28.3449 17.8668 28.0007 17.665 27.6511C17.4632 27.3016 17.2676 26.9519 17.0784 26.6025C16.8424 27.1996 16.6302 27.7856 16.4422 28.3571ZM17.0784 21.3975C17.2676 21.0481 17.4632 20.6984 17.665 20.3489C17.8668 19.9993 18.0719 19.6551 18.2798 19.3165C17.6447 19.4107 17.0311 19.5199 16.4422 19.6429C16.6302 20.2144 16.8424 20.8004 17.0784 21.3975ZM15.7816 24C15.188 25.3041 14.6893 26.5851 14.2913 27.8155C13.8047 27.6695 13.3431 27.5132 12.9092 27.3475C11.5148 26.8151 10.4625 26.2081 9.77828 25.5904C9.09391 24.9726 8.86809 24.4333 8.86809 24C8.86809 23.5666 9.09391 23.0273 9.77828 22.4095C10.4625 21.7918 11.5148 21.1849 12.9092 20.6524C13.3431 20.4868 13.8047 20.3304 14.2913 20.1844C14.6892 21.4149 15.188 22.6959 15.7816 24ZM22.7876 16.714C23.1847 16.7032 23.5854 16.6977 23.989 16.6977C24.3926 16.6977 24.7932 16.7032 25.1903 16.714C24.7912 16.2111 24.3898 15.7343 23.9889 15.2858C23.588 15.7343 23.1867 16.2111 22.7876 16.714ZM27.0127 24C27.0127 25.6702 25.6587 27.0242 23.9885 27.0242C22.3183 27.0242 20.9643 25.6702 20.9643 24C20.9643 22.3298 22.3183 20.9758 23.9885 20.9758C25.6587 20.9758 27.0127 22.3298 27.0127 24Z" fill="white"/>
</svg>
